<svg viewBox="0 0 100 100" fill="none" xmlns="http://www.w3.org/2000/svg">
  <circle cx="50" cy="50" r="48" fill="#0A2A43" />
  <circle cx="50" cy="40" r="18" fill="#E89945" opacity="0.3" />
  <circle cx="50" cy="40" r="13" fill="#E89945" />
  <path d="M50 16V9M50 71V64M26 40H19M81 40H74M33 23L28 18M72 57L67 52M33 57L28 62M72 23L67 28" 
        stroke="#E89945" stroke-width="3" stroke-linecap="round" />
  <path d="M18 64C28 58 36 70 46 64C56 58 64 70 74 64C82 58 88 64 88 64" 
        stroke="#1C646D" stroke-width="3.5" stroke-linecap="round" fill="none" />
  <path d="M14 74C24 68 34 80 46 74C56 68 66 80 76 74C84 68 90 74 90 74" 
        stroke="#FDFBF7" stroke-width="3.5" stroke-linecap="round" stroke-opacity="0.95" fill="none" />
</svg>